<svg fill="#000000" height="140px" width="140px" version="1.1" id="Layer_1" xmlns="http://www.w3.org/2000/svg" xmlns:xlink="http://www.w3.org/1999/xlink" viewBox="-128 -128 768.00 768.00" xml:space="preserve" stroke="#000000"><g id="SVGRepo_bgCarrier" stroke-width="0" transform="translate(0,0), scale(1)"><rect x="-128" y="-128" width="768.00" height="768.00" rx="384" fill="#ffffff" strokewidth="0"></rect></g><g id="SVGRepo_tracerCarrier" stroke-linecap="round" stroke-linejoin="round"></g><g id="SVGRepo_iconCarrier"> <g> <g> <path d="M256,0c-85.333,0-154.667,83.733-154.667,186.667c0,100.8,66.56,182.933,149.333,186.347v128.32 c0,5.867,4.8,10.667,10.667,10.667C267.2,512,272,507.2,272,501.333v-128.96c77.76-9.707,138.667-89.28,138.667-185.707 C410.667,83.733,341.333,0,256,0z M272,350.72V318.4c0.747-0.427,1.493-0.853,2.24-1.493l64-64 c4.053-4.267,3.947-10.987-0.213-15.04c-4.16-3.947-10.667-3.947-14.827,0L272,288.96V149.333c0-5.867-4.8-10.667-10.667-10.667 c-5.867,0-10.667,4.8-10.667,10.667V351.68c-71.04-3.52-128-76.053-128-165.013c0-91.2,59.84-165.333,133.333-165.333 s133.333,74.133,133.333,165.333C389.333,271.147,338.027,340.8,272,350.72z"></path> </g> </g> </g></svg>